# xmcd CD database file
# Copyright (C) 1993-1996 Ti Kan
#
# Track frame offsets:
# 150
# 10295
# 26152
# 39905
# 57087
# 67110
# 79885
# 93655
# 109000
# 122560
# 133292
# 145162
#
# Disc length: 2084 seconds
#
# Revision: 0
# Processed by: cddbd v1.4b41PL1 Copyright (c) Steve Scherf et al.
# Submitted via: inCDius 1.1b5
#
DISCID=a708220c
DTITLE=Charley Pride - 36 All Time Greatest Hits - Disc 3
DYEAR=1900
DGENRE=
TTITLE0=Is Anybody Goin' To San Antone 
TTITLE1=Me And Bobby Mcgee
TTITLE2=Never Been So Loved (In All My Life)
TTITLE3=(I'm So) Afraid Of Losing You Again
TTITLE4=Why Baby Why
TTITLE5=Rhinestone cowboy
TTITLE6=All I Have To Offer You (Is Me)
TTITLE7=Let Me Live
TTITLE8=Love Is A Shadow
TTITLE9=(In My World) You Don't Belong
TTITLE10=The Best There Is
TTITLE11=The Day The World Stood Still
EXTD=
EXTT0=
EXTT1=
EXTT2=
EXTT3=
EXTT4=
EXTT5=
EXTT6=
EXTT7=
EXTT8=
EXTT9=
EXTT10=
EXTT11=
PLAYORDER=
